<svg width="32" height="32" viewBox="0 0 32 32" fill="none" xmlns="http://www.w3.org/2000/svg">
<rect width="32" height="32" rx="10" fill="url(#paint0_linear_23_5652)"/>
<g filter="url(#filter0_d_23_5652)">
<path d="M21.8629 15.5545H17.0622V10.7538C17.0622 10.3372 16.7242 10 16.3084 10C15.8926 10 15.5545 10.3372 15.5545 10.7538V15.5545H10.7538C10.338 15.5545 10 15.8918 10 16.3084C10 16.725 10.338 17.0622 10.7538 17.0622H15.5545V21.8629C15.5545 22.2795 15.8926 22.6167 16.3084 22.6167C16.7242 22.6167 17.0622 22.2795 17.0622 21.8629V17.0622H21.8629C22.2787 17.0622 22.6167 16.725 22.6167 16.3084C22.6167 15.8918 22.2787 15.5545 21.8629 15.5545Z" fill="white"/>
<path d="M21.8629 15.5545H17.0622V10.7538C17.0622 10.3372 16.7242 10 16.3084 10C15.8926 10 15.5545 10.3372 15.5545 10.7538V15.5545H10.7538C10.338 15.5545 10 15.8918 10 16.3084C10 16.725 10.338 17.0622 10.7538 17.0622H15.5545V21.8629C15.5545 22.2795 15.8926 22.6167 16.3084 22.6167C16.7242 22.6167 17.0622 22.2795 17.0622 21.8629V17.0622H21.8629C22.2787 17.0622 22.6167 16.725 22.6167 16.3084C22.6167 15.8918 22.2787 15.5545 21.8629 15.5545Z" stroke="white" stroke-width="0.8"/>
</g>
<defs>
<filter id="filter0_d_23_5652" x="6.6001" y="9.59998" width="19.4167" height="19.4167" filterUnits="userSpaceOnUse" color-interpolation-filters="sRGB">
<feFlood flood-opacity="0" result="BackgroundImageFix"/>
<feColorMatrix in="SourceAlpha" type="matrix" values="0 0 0 0 0 0 0 0 0 0 0 0 0 0 0 0 0 0 127 0" result="hardAlpha"/>
<feOffset dy="3"/>
<feGaussianBlur stdDeviation="1.5"/>
<feComposite in2="hardAlpha" operator="out"/>
<feColorMatrix type="matrix" values="0 0 0 0 0.203922 0 0 0 0 0.462745 0 0 0 0 0.976471 0 0 0 0.278431 0"/>
<feBlend mode="normal" in2="BackgroundImageFix" result="effect1_dropShadow_23_5652"/>
<feBlend mode="normal" in="SourceGraphic" in2="effect1_dropShadow_23_5652" result="shape"/>
</filter>
<linearGradient id="paint0_linear_23_5652" x1="16" y1="0" x2="16" y2="32" gradientUnits="userSpaceOnUse">
<stop stop-color="#1EA0FE"/>
<stop offset="1" stop-color="#4328EB"/>
</linearGradient>
</defs>
</svg>
