<svg width="22" height="19" viewBox="0 0 22 19" fill="none" xmlns="http://www.w3.org/2000/svg">
<path d="M18.9762 2.77742H16.2089L15.2741 1.11367C14.886 0.425219 14.1571 0 13.3708 0H9.06458C8.27826 0 7.54594 0.425219 7.16122 1.11367L6.22642 2.77742H3.0204C1.35328 2.77742 0 4.13407 0 5.79782V15.4361C0 17.1032 1.35665 18.4565 3.0204 18.4565H18.9796C20.6467 18.4565 22 17.0999 22 15.4361V5.8012C22 4.13407 20.6433 2.77742 18.9762 2.77742ZM20.6501 15.4361C20.6501 16.3574 19.9009 17.1066 18.9796 17.1066H3.0204C2.0991 17.1066 1.3499 16.3574 1.3499 15.4361V5.8012C1.3499 4.87989 2.0991 4.13069 3.0204 4.13069H6.36478C6.76638 4.13069 7.13422 3.91471 7.33333 3.56374L8.33901 1.77849C8.4875 1.51526 8.76423 1.35328 9.06795 1.35328H13.3708C13.6711 1.35328 13.9512 1.51526 14.0997 1.77849L15.1054 3.56374C15.3011 3.91134 15.6723 4.13069 16.0739 4.13069H18.9796C19.9009 4.13069 20.6501 4.87989 20.6501 5.8012V15.4361Z" fill="#03D6FA"/>
<path d="M11.2009 5.53809C8.55173 5.53809 6.39526 7.69455 6.39526 10.3437C6.39526 12.9929 8.55173 15.1494 11.2009 15.1494C13.8501 15.1494 16.0066 12.9929 16.0066 10.3437C16.0066 7.69455 13.8501 5.53809 11.2009 5.53809ZM11.2009 13.7995C9.29417 13.7995 7.74516 12.2505 7.74516 10.3437C7.74516 8.437 9.29417 6.88799 11.2009 6.88799C13.1076 6.88799 14.6567 8.437 14.6567 10.3437C14.6567 12.2505 13.1076 13.7995 11.2009 13.7995Z" fill="#03D6FA"/>
</svg>
