<svg width="54" height="60" viewBox="0 0 54 60" fill="none" xmlns="http://www.w3.org/2000/svg">
<path d="M32.5 18.4C32.7916 18.4003 33.0712 18.5163 33.2774 18.7226C33.4837 18.9288 33.5997 19.2084 33.6 19.5V30.5C33.5997 30.7916 33.4837 31.0712 33.2774 31.2774C33.0712 31.4837 32.7916 31.5997 32.5 31.6H21.5C21.2084 31.5997 20.9288 31.4837 20.7226 31.2774C20.5163 31.0712 20.4003 30.7916 20.4 30.5V19.5C20.4003 19.2084 20.5163 18.9288 20.7226 18.7226C20.9288 18.5163 21.2084 18.4003 21.5 18.4H32.5ZM32.5 17.3H21.5C20.9165 17.3 20.3569 17.5318 19.9444 17.9444C19.5318 18.3569 19.3 18.9165 19.3 19.5V30.5C19.3 31.0835 19.5318 31.6431 19.9444 32.0556C20.3569 32.4682 20.9165 32.7 21.5 32.7H32.5C33.0835 32.7 33.6431 32.4682 34.0556 32.0556C34.4682 31.6431 34.7 31.0835 34.7 30.5V19.5C34.7 18.9165 34.4682 18.3569 34.0556 17.9444C33.6431 17.5318 33.0835 17.3 32.5 17.3ZM18.2 17.85C18.2 17.7778 18.1858 17.7062 18.1582 17.6395C18.1306 17.5727 18.0901 17.5121 18.039 17.461C17.9879 17.4099 17.9273 17.3694 17.8605 17.3418C17.7938 17.3142 17.7222 17.3 17.65 17.3H16.55C16.4041 17.3 16.2642 17.3579 16.1611 17.4611C16.0579 17.5642 16 17.7041 16 17.85C16 17.9959 16.0579 18.1358 16.1611 18.2389C16.2642 18.3421 16.4041 18.4 16.55 18.4H17.65C17.7222 18.4 17.7938 18.3858 17.8605 18.3582C17.9273 18.3306 17.9879 18.2901 18.039 18.239C18.0901 18.1879 18.1306 18.1273 18.1582 18.0605C18.1858 17.9938 18.2 17.9222 18.2 17.85ZM20.4 15.65V14.55C20.4 14.4041 20.3421 14.2642 20.2389 14.1611C20.1358 14.0579 19.9959 14 19.85 14C19.7041 14 19.5642 14.0579 19.4611 14.1611C19.3579 14.2642 19.3 14.4041 19.3 14.55V15.65C19.3 15.7959 19.3579 15.9358 19.4611 16.0389C19.5642 16.1421 19.7041 16.2 19.85 16.2C19.9959 16.2 20.1358 16.1421 20.2389 16.0389C20.3421 15.9358 20.4 15.7959 20.4 15.65ZM34.7 15.65V14.55C34.7 14.4041 34.6421 14.2642 34.5389 14.1611C34.4358 14.0579 34.2959 14 34.15 14C34.0041 14 33.8642 14.0579 33.7611 14.1611C33.6579 14.2642 33.6 14.4041 33.6 14.55V15.65C33.6 15.7959 33.6579 15.9358 33.7611 16.0389C33.8642 16.1421 34.0041 16.2 34.15 16.2C34.2959 16.2 34.4358 16.1421 34.5389 16.0389C34.6421 15.9358 34.7 15.7959 34.7 15.65ZM38 17.85C38 17.7778 37.9858 17.7062 37.9582 17.6395C37.9306 17.5727 37.8901 17.5121 37.839 17.461C37.7879 17.4099 37.7273 17.3694 37.6605 17.3418C37.5938 17.3142 37.5222 17.3 37.45 17.3H36.35C36.2041 17.3 36.0642 17.3579 35.9611 17.4611C35.8579 17.5642 35.8 17.7041 35.8 17.85C35.8 17.9959 35.8579 18.1358 35.9611 18.2389C36.0642 18.3421 36.2041 18.4 36.35 18.4H37.45C37.5222 18.4 37.5938 18.3858 37.6605 18.3582C37.7273 18.3306 37.7879 18.2901 37.839 18.239C37.8901 18.1879 37.9306 18.1273 37.9582 18.0605C37.9858 17.9938 38 17.9222 38 17.85ZM38 32.15C38 32.0778 37.9858 32.0062 37.9582 31.9395C37.9306 31.8727 37.8901 31.8121 37.839 31.761C37.7879 31.7099 37.7273 31.6694 37.6605 31.6418C37.5938 31.6142 37.5222 31.6 37.45 31.6H36.35C36.2041 31.6 36.0642 31.6579 35.9611 31.7611C35.8579 31.8642 35.8 32.0041 35.8 32.15C35.8 32.2959 35.8579 32.4358 35.9611 32.5389C36.0642 32.6421 36.2041 32.7 36.35 32.7H37.45C37.5222 32.7 37.5938 32.6858 37.6605 32.6582C37.7273 32.6306 37.7879 32.5901 37.839 32.539C37.8901 32.4879 37.9306 32.4273 37.9582 32.3605C37.9858 32.2938 38 32.2222 38 32.15ZM34.7 35.45V34.35C34.7 34.2041 34.6421 34.0642 34.5389 33.9611C34.4358 33.8579 34.2959 33.8 34.15 33.8C34.0041 33.8 33.8642 33.8579 33.7611 33.9611C33.6579 34.0642 33.6 34.2041 33.6 34.35V35.45C33.6 35.5959 33.6579 35.7358 33.7611 35.8389C33.8642 35.9421 34.0041 36 34.15 36C34.2959 36 34.4358 35.9421 34.5389 35.8389C34.6421 35.7358 34.7 35.5959 34.7 35.45ZM18.2 32.15C18.2 32.0778 18.1858 32.0062 18.1582 31.9395C18.1306 31.8727 18.0901 31.8121 18.039 31.761C17.9879 31.7099 17.9273 31.6694 17.8605 31.6418C17.7938 31.6142 17.7222 31.6 17.65 31.6H16.55C16.4041 31.6 16.2642 31.6579 16.1611 31.7611C16.0579 31.8642 16 32.0041 16 32.15C16 32.2959 16.0579 32.4358 16.1611 32.5389C16.2642 32.6421 16.4041 32.7 16.55 32.7H17.65C17.7222 32.7 17.7938 32.6858 17.8605 32.6582C17.9273 32.6306 17.9879 32.5901 18.039 32.539C18.0901 32.4879 18.1306 32.4273 18.1582 32.3605C18.1858 32.2938 18.2 32.2222 18.2 32.15ZM20.4 35.45V34.35C20.4 34.2041 20.3421 34.0642 20.2389 33.9611C20.1358 33.8579 19.9959 33.8 19.85 33.8C19.7041 33.8 19.5642 33.8579 19.4611 33.9611C19.3579 34.0642 19.3 34.2041 19.3 34.35V35.45C19.3 35.5959 19.3579 35.7358 19.4611 35.8389C19.5642 35.9421 19.7041 36 19.85 36C19.9959 36 20.1358 35.9421 20.2389 35.8389C20.3421 35.7358 20.4 35.5959 20.4 35.45Z" fill="#A8D9F1" stroke="#A8D9F1"/>
<path d="M11.9854 52.1289C10.8968 52.1289 10.0321 51.769 9.39111 51.0493C8.75374 50.3296 8.43506 49.3538 8.43506 48.1221C8.43506 46.8975 8.75553 45.9253 9.39648 45.2056C10.0374 44.4823 10.9004 44.1206 11.9854 44.1206C12.8662 44.1206 13.6092 44.3695 14.2144 44.8672C14.8195 45.3613 15.1722 46.0112 15.2725 46.8169H14.0801C13.9727 46.3192 13.7274 45.9217 13.3442 45.6245C12.9647 45.3237 12.5117 45.1733 11.9854 45.1733C11.2799 45.1733 10.716 45.4419 10.2935 45.979C9.87451 46.5125 9.66504 47.2269 9.66504 48.1221C9.66504 49.028 9.87451 49.7477 10.2935 50.2812C10.7124 50.8112 11.2782 51.0762 11.9907 51.0762C12.5278 51.0762 12.979 50.9455 13.3442 50.6841C13.7131 50.4227 13.9583 50.0575 14.0801 49.5884H15.2778C15.131 50.3905 14.7676 51.0153 14.1875 51.4629C13.611 51.9069 12.877 52.1289 11.9854 52.1289ZM18.2695 51.1299C18.7028 51.1299 19.0645 51.0063 19.3545 50.7593C19.6445 50.5086 19.7896 50.1917 19.7896 49.8086V49.3521L18.3716 49.4487C17.5659 49.4989 17.1631 49.7853 17.1631 50.3081C17.1631 50.5588 17.2633 50.7593 17.4639 50.9097C17.6644 51.0565 17.9329 51.1299 18.2695 51.1299ZM17.958 52.0591C17.3743 52.0591 16.8999 51.9015 16.5347 51.5864C16.1694 51.2677 15.9868 50.8488 15.9868 50.3296C15.9868 49.8211 16.1766 49.4219 16.5562 49.1318C16.9393 48.8418 17.4925 48.6735 18.2158 48.627L19.7896 48.5356V48.0845C19.7896 47.7515 19.6821 47.4972 19.4673 47.3218C19.256 47.1427 18.9552 47.0532 18.5649 47.0532C18.2498 47.0532 17.9831 47.1284 17.7646 47.2788C17.5498 47.4292 17.4173 47.6315 17.3672 47.8857H16.2769C16.2948 47.3701 16.5221 46.9422 16.959 46.6021C17.3958 46.2619 17.9419 46.0918 18.5972 46.0918C19.3097 46.0918 19.8773 46.2655 20.2998 46.6128C20.7259 46.9601 20.939 47.422 20.939 47.9985V52H19.8271V51.0278H19.8003C19.6392 51.3429 19.3921 51.5936 19.0591 51.7798C18.7261 51.966 18.359 52.0591 17.958 52.0591ZM22.1099 52V46.167H23.2217V47.1499H23.2432C23.6048 46.4517 24.2368 46.1025 25.1392 46.1025C25.7837 46.1025 26.2904 46.2959 26.6592 46.6826C27.0316 47.0658 27.2178 47.5921 27.2178 48.2617V52H26.0522V48.4819C26.0522 48.0379 25.9395 47.6978 25.7139 47.4614C25.4883 47.2215 25.1624 47.1016 24.7363 47.1016C24.2959 47.1016 23.9414 47.243 23.6729 47.5259C23.4079 47.8052 23.2754 48.174 23.2754 48.6323V52H22.1099ZM33.3354 46.167L31.2354 52H29.9946L27.8892 46.167H29.1191L30.6069 50.8506H30.6338L32.127 46.167H33.3354ZM35.9404 51.1299C36.3737 51.1299 36.7354 51.0063 37.0254 50.7593C37.3154 50.5086 37.4604 50.1917 37.4604 49.8086V49.3521L36.0425 49.4487C35.2368 49.4989 34.834 49.7853 34.834 50.3081C34.834 50.5588 34.9342 50.7593 35.1348 50.9097C35.3353 51.0565 35.6038 51.1299 35.9404 51.1299ZM35.6289 52.0591C35.0452 52.0591 34.5708 51.9015 34.2056 51.5864C33.8403 51.2677 33.6577 50.8488 33.6577 50.3296C33.6577 49.8211 33.8475 49.4219 34.2271 49.1318C34.6102 48.8418 35.1634 48.6735 35.8867 48.627L37.4604 48.5356V48.0845C37.4604 47.7515 37.353 47.4972 37.1382 47.3218C36.9269 47.1427 36.6261 47.0532 36.2358 47.0532C35.9207 47.0532 35.654 47.1284 35.4355 47.2788C35.2207 47.4292 35.0882 47.6315 35.0381 47.8857H33.9478C33.9657 47.3701 34.193 46.9422 34.6299 46.6021C35.0667 46.2619 35.6128 46.0918 36.2681 46.0918C36.9806 46.0918 37.5482 46.2655 37.9707 46.6128C38.3968 46.9601 38.6099 47.422 38.6099 47.9985V52H37.498V51.0278H37.4712C37.3101 51.3429 37.063 51.5936 36.73 51.7798C36.397 51.966 36.0299 52.0591 35.6289 52.0591ZM39.6841 47.8267C39.6841 47.3146 39.8936 46.8993 40.3125 46.5806C40.7314 46.2583 41.2757 46.0972 41.9453 46.0972C42.5827 46.0972 43.109 46.2601 43.5244 46.5859C43.9434 46.9082 44.16 47.3236 44.1743 47.832H43.0786C43.0535 47.5742 42.9372 47.3701 42.7295 47.2197C42.5218 47.0693 42.2515 46.9941 41.9185 46.9941C41.589 46.9941 41.3223 47.0658 41.1182 47.209C40.9176 47.3486 40.8174 47.533 40.8174 47.7622C40.8174 48.1131 41.12 48.362 41.7251 48.5088L42.6919 48.7397C43.2791 48.883 43.6945 49.0728 43.938 49.3091C44.1815 49.5454 44.3032 49.8784 44.3032 50.3081C44.3032 50.8273 44.0794 51.2516 43.6318 51.5811C43.1842 51.9069 42.6077 52.0698 41.9023 52.0698C41.2256 52.0698 40.6706 51.9105 40.2373 51.5918C39.8076 51.2695 39.5713 50.8434 39.5283 50.3135H40.6777C40.7243 50.5928 40.8568 50.8076 41.0752 50.958C41.2972 51.1048 41.5926 51.1782 41.9614 51.1782C42.3231 51.1782 42.6095 51.1084 42.8208 50.9688C43.0356 50.8291 43.1431 50.6411 43.1431 50.4048C43.1431 50.2186 43.0786 50.0718 42.9497 49.9644C42.8244 49.8569 42.6077 49.7638 42.2998 49.6851L41.2578 49.4272C40.2087 49.1694 39.6841 48.6359 39.6841 47.8267Z" fill="#A8D9F1"/>
</svg>
