<svg width="54" height="60" viewBox="0 0 54 60" fill="none" xmlns="http://www.w3.org/2000/svg">
<path d="M18.9854 52.1289C17.8968 52.1289 17.0321 51.769 16.3911 51.0493C15.7537 50.3296 15.4351 49.3538 15.4351 48.1221C15.4351 46.8975 15.7555 45.9253 16.3965 45.2056C17.0374 44.4823 17.9004 44.1206 18.9854 44.1206C19.8662 44.1206 20.6092 44.3695 21.2144 44.8672C21.8195 45.3613 22.1722 46.0112 22.2725 46.8169H21.0801C20.9727 46.3192 20.7274 45.9217 20.3442 45.6245C19.9647 45.3237 19.5117 45.1733 18.9854 45.1733C18.2799 45.1733 17.716 45.4419 17.2935 45.979C16.8745 46.5125 16.665 47.2269 16.665 48.1221C16.665 49.028 16.8745 49.7477 17.2935 50.2812C17.7124 50.8112 18.2782 51.0762 18.9907 51.0762C19.5278 51.0762 19.979 50.9455 20.3442 50.6841C20.7131 50.4227 20.9583 50.0575 21.0801 49.5884H22.2778C22.131 50.3905 21.7676 51.0153 21.1875 51.4629C20.611 51.9069 19.877 52.1289 18.9854 52.1289ZM23.2446 52V46.167H24.3564V47.1499H24.3779C24.4674 46.8241 24.6375 46.5698 24.8882 46.3872C25.1424 46.201 25.4414 46.1079 25.7852 46.1079C25.9463 46.1079 26.0752 46.1222 26.1719 46.1509V47.2412C26.043 47.1911 25.8729 47.166 25.6616 47.166C25.2785 47.166 24.9741 47.2896 24.7485 47.5366C24.5229 47.7801 24.4102 48.1077 24.4102 48.5195V52H23.2446ZM31.1992 51.2642C30.7051 51.8013 30.0355 52.0698 29.1904 52.0698C28.3454 52.0698 27.674 51.8013 27.1763 51.2642C26.6785 50.7271 26.4297 50.0002 26.4297 49.0835C26.4297 48.1704 26.6785 47.4435 27.1763 46.9028C27.6776 46.3621 28.349 46.0918 29.1904 46.0918C30.0319 46.0918 30.7015 46.3621 31.1992 46.9028C31.6969 47.4399 31.9458 48.1668 31.9458 49.0835C31.9458 50.0002 31.6969 50.7271 31.1992 51.2642ZM28.0303 50.5713C28.3096 50.9258 28.6963 51.103 29.1904 51.103C29.6846 51.103 30.0695 50.9258 30.3452 50.5713C30.6245 50.2168 30.7642 49.7209 30.7642 49.0835C30.7642 48.4461 30.6245 47.9502 30.3452 47.5957C30.0695 47.2376 29.6846 47.0586 29.1904 47.0586C28.6963 47.0586 28.3096 47.2376 28.0303 47.5957C27.751 47.9538 27.6113 48.4497 27.6113 49.0835C27.6113 49.7173 27.751 50.2132 28.0303 50.5713ZM35.8882 46.1079C36.633 46.1079 37.2292 46.3783 37.6768 46.9189C38.1279 47.4596 38.3535 48.1812 38.3535 49.0835C38.3535 49.9823 38.1297 50.7038 37.6821 51.248C37.2381 51.7887 36.6491 52.0591 35.915 52.0591C35.4961 52.0591 35.1273 51.9714 34.8086 51.7959C34.4899 51.6169 34.2428 51.3662 34.0674 51.0439H34.0459V53.9067H32.8804V46.167H34.0029V47.1338H34.0298C34.1945 46.8187 34.4434 46.5698 34.7764 46.3872C35.113 46.201 35.4836 46.1079 35.8882 46.1079ZM35.5928 51.0708C36.0654 51.0708 36.445 50.89 36.7314 50.5283C37.0179 50.1667 37.1611 49.6851 37.1611 49.0835C37.1611 48.4819 37.0179 48.0003 36.7314 47.6387C36.445 47.277 36.0654 47.0962 35.5928 47.0962C35.1309 47.0962 34.7567 47.2788 34.4702 47.644C34.1838 48.0093 34.0387 48.4891 34.0352 49.0835C34.0387 49.6815 34.182 50.1631 34.4648 50.5283C34.7513 50.89 35.1273 51.0708 35.5928 51.0708Z" fill="#A8D9F1"/>
<path d="M20.3333 15V28.1111C20.3333 29.3557 20.3333 29.978 20.5755 30.4533C20.7886 30.8715 21.1286 31.2114 21.5467 31.4245C22.022 31.6667 22.6443 31.6667 23.8889 31.6667H30.3333M37 31.6667H33.6667M33.6667 35V21.8889C33.6667 20.6443 33.6667 20.022 33.4245 19.5467C33.2114 19.1285 32.8715 18.7886 32.4533 18.5755C31.978 18.3333 31.3557 18.3333 30.1111 18.3333H23.6667M17 18.3333H20.3333M21.4444 30.5556L37 15" stroke="#A8D9F1" stroke-width="2" stroke-linecap="round" stroke-linejoin="round"/>
</svg>
