<svg width="54" height="60" viewBox="0 0 54 60" fill="none" xmlns="http://www.w3.org/2000/svg">
<path d="M28.9141 14.9248C30.1215 14.925 31.1143 15.8722 31.1143 17.0361V17.6396H35.2988C35.552 17.6397 35.7478 17.7323 35.8799 17.876C36.0107 18.0184 36.0751 18.2065 36.0752 18.3926C36.0752 18.5789 36.0109 18.7676 35.8799 18.9102C35.7478 19.0538 35.552 19.1464 35.2988 19.1465H34.6338L34.0479 31.4111C33.9749 32.906 32.6923 34.0752 31.1387 34.0752H23.8613C22.398 34.0752 21.1854 33.0476 20.9795 31.6875L20.9521 31.4111L20.3662 19.1465H19.7012C19.448 19.1464 19.2522 19.0538 19.1201 18.9102C18.9891 18.7676 18.9248 18.5789 18.9248 18.3926C18.9249 18.2065 18.9893 18.0184 19.1201 17.876C19.2522 17.7323 19.448 17.6397 19.7012 17.6396H23.8779V17.0361C23.8779 15.8721 24.8716 14.9249 26.0791 14.9248H28.9141ZM22.5186 31.3428L22.5312 31.4697C22.626 32.0922 23.1854 32.5674 23.8613 32.5674H31.1318C31.8529 32.5673 32.4403 32.0261 32.4736 31.3428L32.4775 31.2715H32.4844L33.0586 19.1465H21.9414L22.5186 31.3428ZM26.0791 16.4326C25.7277 16.4327 25.4453 16.7074 25.4453 17.0361V17.6396H29.5469V17.0361C29.5469 16.7075 29.2653 16.4328 28.9141 16.4326H26.0791Z" fill="#A8D9F1" stroke="#A8D9F1" stroke-width="0.15"/>
<path d="M25.3708 21.0388C25.5628 21.0388 25.7578 21.0994 25.906 21.2243C26.056 21.3507 26.1541 21.5401 26.1541 21.7858V29.9284C26.1541 30.1741 26.056 30.3635 25.906 30.4899C25.7577 30.6148 25.5628 30.6754 25.3708 30.6755C25.1788 30.6755 24.9831 30.6149 24.8347 30.4899C24.6847 30.3635 24.5867 30.1741 24.5867 29.9284V21.7858C24.5867 21.5401 24.6847 21.3507 24.8347 21.2243C24.9831 21.0993 25.1788 21.0388 25.3708 21.0388Z" fill="#A8D9F1" stroke="#A8D9F1" stroke-width="0.15"/>
<path d="M29.6228 21.0388C29.8147 21.0388 30.0097 21.0994 30.158 21.2243C30.308 21.3507 30.406 21.5401 30.406 21.7858V29.9284C30.406 30.1741 30.308 30.3635 30.158 30.4899C30.0097 30.6148 29.8147 30.6754 29.6228 30.6755C29.4307 30.6755 29.235 30.6149 29.0867 30.4899C28.9367 30.3635 28.8386 30.1741 28.8386 29.9284V21.7858C28.8386 21.5401 28.9367 21.3507 29.0867 21.2243C29.235 21.0993 29.4307 21.0388 29.6228 21.0388Z" fill="#A8D9F1" stroke="#A8D9F1" stroke-width="0.15"/>
<path d="M11.7144 44.2495H14.4912C15.6478 44.2495 16.5483 44.5879 17.1929 45.2646C17.8374 45.9414 18.1597 46.8903 18.1597 48.1113C18.1597 49.3359 17.8374 50.2902 17.1929 50.9741C16.5483 51.658 15.6478 52 14.4912 52H11.7144V44.2495ZM12.9175 45.2861V50.958H14.3784C15.202 50.958 15.834 50.7145 16.2744 50.2275C16.7148 49.737 16.9351 49.0352 16.9351 48.1221C16.9351 47.209 16.7148 46.509 16.2744 46.022C15.834 45.5314 15.202 45.2861 14.3784 45.2861H12.9175ZM21.6187 47.0425C21.1997 47.0425 20.8506 47.1821 20.5713 47.4614C20.2956 47.7407 20.1416 48.1042 20.1094 48.5518H23.0688C23.0545 48.097 22.9149 47.7318 22.6499 47.4561C22.3849 47.1803 22.0412 47.0425 21.6187 47.0425ZM23.0635 50.292H24.1753C24.0929 50.8148 23.819 51.2427 23.3535 51.5757C22.888 51.9051 22.3276 52.0698 21.6724 52.0698C20.8273 52.0698 20.1577 51.8049 19.6636 51.2749C19.173 50.7414 18.9277 50.0181 18.9277 49.105C18.9277 48.1919 19.173 47.4614 19.6636 46.9136C20.1541 46.3657 20.8076 46.0918 21.624 46.0918C22.4261 46.0918 23.0617 46.3514 23.5308 46.8706C23.9998 47.3862 24.2344 48.0863 24.2344 48.9707V49.3789H20.104V49.4487C20.104 49.9536 20.249 50.36 20.5391 50.668C20.8291 50.9723 21.214 51.1245 21.6938 51.1245C22.034 51.1245 22.3276 51.0493 22.5747 50.8989C22.8218 50.7485 22.9847 50.5462 23.0635 50.292ZM25.2227 52V43.9004H26.3882V52H25.2227ZM30.062 47.0425C29.6431 47.0425 29.2939 47.1821 29.0146 47.4614C28.7389 47.7407 28.585 48.1042 28.5527 48.5518H31.5122C31.4979 48.097 31.3582 47.7318 31.0933 47.4561C30.8283 47.1803 30.4845 47.0425 30.062 47.0425ZM31.5068 50.292H32.6187C32.5363 50.8148 32.2624 51.2427 31.7969 51.5757C31.3314 51.9051 30.771 52.0698 30.1157 52.0698C29.2707 52.0698 28.6011 51.8049 28.1069 51.2749C27.6164 50.7414 27.3711 50.0181 27.3711 49.105C27.3711 48.1919 27.6164 47.4614 28.1069 46.9136C28.5975 46.3657 29.251 46.0918 30.0674 46.0918C30.8695 46.0918 31.505 46.3514 31.9741 46.8706C32.4432 47.3862 32.6777 48.0863 32.6777 48.9707V49.3789H28.5474V49.4487C28.5474 49.9536 28.6924 50.36 28.9824 50.668C29.2725 50.9723 29.6574 51.1245 30.1372 51.1245C30.4774 51.1245 30.771 51.0493 31.0181 50.8989C31.2651 50.7485 31.4281 50.5462 31.5068 50.292ZM33.9668 44.8564H35.127V46.167H36.2441V47.0854H35.127V50.3457C35.127 50.5999 35.1842 50.7879 35.2988 50.9097C35.417 51.0278 35.5978 51.0869 35.8413 51.0869C35.981 51.0869 36.1134 51.078 36.2388 51.0601V51.9785C36.0812 52.0179 35.8628 52.0376 35.5835 52.0376C34.9998 52.0376 34.5845 51.9176 34.3374 51.6777C34.0903 51.4342 33.9668 51.0296 33.9668 50.4639V47.0854H33.1611V46.167H33.9668V44.8564ZM39.5151 47.0425C39.0962 47.0425 38.7471 47.1821 38.4678 47.4614C38.1921 47.7407 38.0381 48.1042 38.0059 48.5518H40.9653C40.951 48.097 40.8114 47.7318 40.5464 47.4561C40.2814 47.1803 39.9377 47.0425 39.5151 47.0425ZM40.96 50.292H42.0718C41.9894 50.8148 41.7155 51.2427 41.25 51.5757C40.7845 51.9051 40.2241 52.0698 39.5688 52.0698C38.7238 52.0698 38.0542 51.8049 37.5601 51.2749C37.0695 50.7414 36.8242 50.0181 36.8242 49.105C36.8242 48.1919 37.0695 47.4614 37.5601 46.9136C38.0506 46.3657 38.7041 46.0918 39.5205 46.0918C40.3226 46.0918 40.9582 46.3514 41.4272 46.8706C41.8963 47.3862 42.1309 48.0863 42.1309 48.9707V49.3789H38.0005V49.4487C38.0005 49.9536 38.1455 50.36 38.4355 50.668C38.7256 50.9723 39.1105 51.1245 39.5903 51.1245C39.9305 51.1245 40.2241 51.0493 40.4712 50.8989C40.7183 50.7485 40.8812 50.5462 40.96 50.292Z" fill="#A8D9F1"/>
</svg>
