<svg width="54" height="60" viewBox="0 0 54 60" fill="none" xmlns="http://www.w3.org/2000/svg">
<path d="M16.9175 52H15.7144V44.2495H20.5537V45.2861H16.9175V47.7407H20.2476V48.7559H16.9175V52ZM21.5259 52V46.167H22.6914V52H21.5259ZM22.5947 45.1411C22.4622 45.27 22.3011 45.3345 22.1113 45.3345C21.9215 45.3345 21.7604 45.27 21.6279 45.1411C21.4954 45.0086 21.4292 44.8493 21.4292 44.6631C21.4292 44.4733 21.4954 44.314 21.6279 44.1851C21.7604 44.0562 21.9215 43.9917 22.1113 43.9917C22.3011 43.9917 22.4622 44.0562 22.5947 44.1851C22.7272 44.314 22.7935 44.4733 22.7935 44.6631C22.7935 44.8493 22.7272 45.0086 22.5947 45.1411ZM23.9805 52V43.9004H25.146V52H23.9805ZM26.7412 44.8564H27.9014V46.167H29.0186V47.0854H27.9014V50.3457C27.9014 50.5999 27.9587 50.7879 28.0732 50.9097C28.1914 51.0278 28.3722 51.0869 28.6157 51.0869C28.7554 51.0869 28.8879 51.078 29.0132 51.0601V51.9785C28.8556 52.0179 28.6372 52.0376 28.3579 52.0376C27.7743 52.0376 27.3589 51.9176 27.1118 51.6777C26.8647 51.4342 26.7412 51.0296 26.7412 50.4639V47.0854H25.9355V46.167H26.7412V44.8564ZM32.2896 47.0425C31.8706 47.0425 31.5215 47.1821 31.2422 47.4614C30.9665 47.7407 30.8125 48.1042 30.7803 48.5518H33.7397C33.7254 48.097 33.5858 47.7318 33.3208 47.4561C33.0558 47.1803 32.7121 47.0425 32.2896 47.0425ZM33.7344 50.292H34.8462C34.7638 50.8148 34.4899 51.2427 34.0244 51.5757C33.5589 51.9051 32.9985 52.0698 32.3433 52.0698C31.4982 52.0698 30.8286 51.8049 30.3345 51.2749C29.8439 50.7414 29.5986 50.0181 29.5986 49.105C29.5986 48.1919 29.8439 47.4614 30.3345 46.9136C30.825 46.3657 31.4785 46.0918 32.2949 46.0918C33.097 46.0918 33.7326 46.3514 34.2017 46.8706C34.6707 47.3862 34.9053 48.0863 34.9053 48.9707V49.3789H30.7749V49.4487C30.7749 49.9536 30.9199 50.36 31.21 50.668C31.5 50.9723 31.8849 51.1245 32.3647 51.1245C32.7049 51.1245 32.9985 51.0493 33.2456 50.8989C33.4927 50.7485 33.6556 50.5462 33.7344 50.292ZM35.8452 52V46.167H36.957V47.1499H36.9785C37.068 46.8241 37.2381 46.5698 37.4888 46.3872C37.743 46.201 38.042 46.1079 38.3857 46.1079C38.5469 46.1079 38.6758 46.1222 38.7725 46.1509V47.2412C38.6436 47.1911 38.4735 47.166 38.2622 47.166C37.8791 47.166 37.5747 47.2896 37.3491 47.5366C37.1235 47.7801 37.0107 48.1077 37.0107 48.5195V52H35.8452Z" fill="#A8D9F1"/>
<path d="M23.0993 35C24.4287 34.9963 25.7214 34.5642 26.7846 33.768L26.9786 33.6229L27.1725 33.768C28.0846 34.4505 29.1691 34.8662 30.3046 34.9686C31.4401 35.0711 32.5817 34.8562 33.6018 34.3481C34.6218 33.84 35.4799 33.0586 36.0801 32.0916C36.6802 31.1245 36.9987 30.0099 36.9999 28.8725C37.0056 27.6374 36.634 26.4299 35.9346 25.4107C35.2353 24.3916 34.2413 23.6091 33.0851 23.1675L32.7974 23.0675L32.8782 22.7869C33.1351 21.876 33.177 20.918 33.0007 19.9882C32.8243 19.0584 32.4344 18.182 31.8617 17.4276C31.2889 16.6733 30.5488 16.0616 29.6993 15.6404C28.8499 15.2192 27.9142 15 26.9656 15C26.0171 15 25.0814 15.2192 24.2319 15.6404C23.3825 16.0616 22.6424 16.6733 22.0696 17.4276C21.4968 18.182 21.107 19.0584 20.9306 19.9882C20.7542 20.918 20.7961 21.876 21.053 22.7869L21.1597 23.0675L20.8849 23.1739C19.5587 23.6967 18.4562 24.6636 17.7664 25.9086C17.0766 27.1537 16.8426 28.5994 17.1044 29.9978C17.3663 31.3962 18.1077 32.6601 19.2015 33.5728C20.2953 34.4855 21.6734 34.9901 23.0993 35ZM31.3265 24.709C31.9605 24.778 32.5705 24.99 33.1102 25.329C33.6499 25.668 34.1051 26.1251 34.4415 26.6656C34.7778 27.2062 34.9865 27.816 35.0516 28.4489C35.1167 29.0818 35.0365 29.7212 34.8172 30.3186C34.5979 30.9161 34.2451 31.4559 33.7857 31.8971C33.3262 32.3384 32.7721 32.6695 32.1654 32.8655C31.5586 33.0615 30.9151 33.1171 30.2837 33.0282C29.6522 32.9393 29.0492 32.7081 28.5206 32.3523L28.2716 32.1846L28.4236 31.9233C28.9605 30.997 29.2431 29.9458 29.2431 28.8757C29.2431 27.8057 28.9605 26.7545 28.4236 25.8281L28.2716 25.5669L28.5206 25.3992C29.2102 24.932 30.0242 24.6815 30.8578 24.68C31.0145 24.6811 31.171 24.6907 31.3265 24.709ZM26.9786 16.94C27.5304 16.94 28.0769 17.0484 28.5868 17.2591C29.0967 17.4698 29.5599 17.7786 29.9502 18.1679C30.3404 18.5573 30.65 19.0194 30.8612 19.5281C31.0724 20.0368 31.1811 20.5819 31.1811 21.1325C31.1808 21.6107 31.0977 22.0854 30.9354 22.5354L30.8578 22.745H30.638C29.8034 22.7766 28.984 22.977 28.2294 23.3341C27.4747 23.6911 26.8007 24.1972 26.248 24.8219L26.2253 24.8477L26.0799 25.0218L25.9409 25.1928L25.7307 25.1283C24.7458 24.8246 23.907 24.1704 23.3741 23.29L23.3515 23.2545C22.9767 22.6175 22.7773 21.8929 22.7734 21.1542C22.7696 20.4155 22.9615 19.689 23.3296 19.048C23.6978 18.4071 24.2291 17.8746 24.8699 17.5044C25.5107 17.1342 26.2381 16.9395 26.9786 16.94ZM21.8547 24.867L22.0649 24.8025L22.2039 24.9735C23.2156 26.2275 24.6784 27.0375 26.2803 27.231H26.332C26.484 27.2471 26.6294 27.2568 26.7684 27.2632L26.9786 27.26L27.0529 27.4632C27.3123 28.1648 27.3754 28.9236 27.2353 29.6582C27.0952 30.3929 26.7572 31.0756 26.2577 31.6331C25.8291 32.12 25.2933 32.5012 24.6923 32.7467C24.0912 32.9922 23.4413 33.0955 22.7935 33.0483C22.1458 33.001 21.5178 32.8047 20.9589 32.4746C20.4 32.1445 19.9254 31.6897 19.5723 31.1459C19.2193 30.602 18.9974 29.9839 18.9241 29.3401C18.8508 28.6963 18.928 28.0443 19.1498 27.4353C19.3716 26.8263 19.7318 26.2769 20.2023 25.8302C20.6727 25.3834 21.2406 25.0516 21.8612 24.8606L21.8547 24.867Z" fill="#A8D9F1"/>
</svg>
