<svg width="18" height="18" viewBox="0 0 18 18" fill="none" xmlns="http://www.w3.org/2000/svg">
<path fill-rule="evenodd" clip-rule="evenodd" d="M0 3.375C0 1.51104 1.51104 0 3.375 0H5.625C6.24632 0 6.75 0.503685 6.75 1.125C6.75 1.74632 6.24632 2.25 5.625 2.25H3.375C2.75368 2.25 2.25 2.75368 2.25 3.375V5.625C2.25 6.24632 1.74632 6.75 1.125 6.75C0.503685 6.75 0 6.24632 0 5.625V3.375Z" fill="#A8D9F1"/>
<path fill-rule="evenodd" clip-rule="evenodd" d="M0 14.625C0 16.489 1.51104 18 3.375 18H5.625C6.24632 18 6.75 17.4963 6.75 16.875C6.75 16.2537 6.24632 15.75 5.625 15.75H3.375C2.75368 15.75 2.25 15.2463 2.25 14.625V12.375C2.25 11.7537 1.74632 11.25 1.125 11.25C0.503685 11.25 0 11.7537 0 12.375V14.625Z" fill="#A8D9F1"/>
<path fill-rule="evenodd" clip-rule="evenodd" d="M18 3.375C18 1.51104 16.489 0 14.625 0H12.375C11.7537 0 11.25 0.503685 11.25 1.125C11.25 1.74632 11.7537 2.25 12.375 2.25H14.625C15.2463 2.25 15.75 2.75368 15.75 3.375V5.625C15.75 6.24632 16.2537 6.75 16.875 6.75C17.4963 6.75 18 6.24632 18 5.625V3.375Z" fill="#A8D9F1"/>
<path fill-rule="evenodd" clip-rule="evenodd" d="M18 14.625C18 16.489 16.489 18 14.625 18H12.375C11.7537 18 11.25 17.4963 11.25 16.875C11.25 16.2537 11.7537 15.75 12.375 15.75H14.625C15.2463 15.75 15.75 15.2463 15.75 14.625V12.375C15.75 11.7537 16.2537 11.25 16.875 11.25C17.4963 11.25 18 11.7537 18 12.375V14.625Z" fill="#A8D9F1"/>
</svg>
