<svg width="20" height="17" viewBox="0 0 20 17" fill="none" xmlns="http://www.w3.org/2000/svg">
<path d="M1.30612 2.61225H18.6939C19.4286 2.61225 20 2.04082 20 1.30612C20 0.571429 19.4286 0 18.6939 0H1.30612C0.571429 0 0 0.571429 0 1.30612C0 2.04082 0.571429 2.61225 1.30612 2.61225Z" fill="white"/>
<path d="M1.30612 9.67328H18.6939C19.4286 9.67328 20 9.10185 20 8.36716C20 7.63246 19.4286 7.06104 18.6939 7.06104H1.30612C0.571429 7.06104 0 7.63246 0 8.36716C0 9.10185 0.571429 9.67328 1.30612 9.67328Z" fill="white"/>
<path d="M18.6939 16.7348C19.4286 16.7348 20 16.1634 20 15.4287C20 14.694 19.4286 14.1226 18.6939 14.1226H1.30612C0.571429 14.1226 0 14.694 0 15.4287C0 16.1634 0.571429 16.7348 1.30612 16.7348H18.6939Z" fill="white"/>
</svg>
