<svg width="60" height="24" viewBox="0 0 60 24" fill="none" xmlns="http://www.w3.org/2000/svg">
<rect width="60" height="24" rx="12" fill="url(#paint0_linear_23_6472)"/>
<path d="M16.0001 6.24091C16.3428 6.24091 16.6205 5.96312 16.6205 5.62045C16.6205 5.27779 16.3428 5 16.0001 5C15.6574 5 15.3796 5.27779 15.3796 5.62045C15.3796 5.96312 15.6574 6.24091 16.0001 6.24091Z" fill="white"/>
<path d="M22.3795 8.02265C22.7222 8.02265 22.9999 7.74486 22.9999 7.40219C22.9999 7.05953 22.7222 6.78174 22.3795 6.78174C22.0368 6.78174 21.759 7.05953 21.759 7.40219C21.759 7.74486 22.0368 8.02265 22.3795 8.02265Z" fill="white"/>
<path d="M9.62045 8.02265C9.96312 8.02265 10.2409 7.74486 10.2409 7.40219C10.2409 7.05953 9.96312 6.78174 9.62045 6.78174C9.27779 6.78174 9 7.05953 9 7.40219C9 7.74486 9.27779 8.02265 9.62045 8.02265Z" fill="white"/>
<path d="M21.2499 15.182C21.2499 15.007 21.1068 14.8638 20.9318 14.8638H11.3863C11.2113 14.8638 11.0681 15.007 11.0681 15.182V16.6138C11.0681 16.7888 11.2113 16.932 11.3863 16.932H20.9318C21.1068 16.932 21.2499 16.7888 21.2499 16.6138V15.182Z" fill="white"/>
<path d="M9.41358 8.64312L10.8136 13.5749C10.8772 13.7658 11.0522 13.909 11.259 13.909H15.9999H20.7409C20.9477 13.909 21.1227 13.7818 21.1863 13.5749L22.5863 8.64312C22.6181 8.51585 22.5068 8.40448 22.3795 8.45221L18.3386 9.89994C18.2749 9.93176 18.1954 9.89994 18.1477 9.8363L16.1272 6.79767C16.0636 6.70221 15.9204 6.70221 15.8568 6.79767L13.8363 9.82039C13.7886 9.88403 13.709 9.91585 13.6454 9.88403L9.6204 8.45221C9.49312 8.40448 9.36585 8.51585 9.41358 8.64312Z" fill="white"/>
<path d="M32.2959 10.6021C32.2959 10.1903 32.1867 9.89665 31.9683 9.72119C31.7534 9.54574 31.4508 9.45801 31.0605 9.45801H29.519V11.7891H31.0605C31.4508 11.7891 31.7534 11.6942 31.9683 11.5044C32.1867 11.3146 32.2959 11.0138 32.2959 10.6021ZM33.9341 10.5913C33.9341 11.5259 33.6978 12.1865 33.2251 12.5732C32.7524 12.96 32.0775 13.1533 31.2002 13.1533H29.519V16H27.8755V8.08301H31.3237C32.1187 8.08301 32.7524 8.28711 33.2251 8.69531C33.6978 9.10352 33.9341 9.73551 33.9341 10.5913ZM36.8291 9.45801V11.585H38.7036C39.076 11.585 39.3553 11.542 39.5415 11.4561C39.8709 11.3057 40.0356 11.0085 40.0356 10.5645C40.0356 10.0846 39.8763 9.76237 39.5576 9.59766C39.3786 9.50456 39.11 9.45801 38.752 9.45801H36.8291ZM39.0957 8.08301C39.6507 8.09375 40.0768 8.16178 40.374 8.28711C40.6748 8.41243 40.929 8.59684 41.1367 8.84033C41.3086 9.04085 41.4447 9.26286 41.5449 9.50635C41.6452 9.74984 41.6953 10.0273 41.6953 10.3389C41.6953 10.7148 41.6004 11.0854 41.4106 11.4507C41.2209 11.8123 40.9076 12.0684 40.4707 12.2188C40.8359 12.3656 41.0938 12.575 41.2441 12.8472C41.3981 13.1157 41.4751 13.5275 41.4751 14.0825V14.6143C41.4751 14.9759 41.4894 15.2212 41.5181 15.3501C41.561 15.5542 41.6613 15.7046 41.8188 15.8013V16H39.998C39.9479 15.8245 39.9121 15.6831 39.8906 15.5757C39.8477 15.3537 39.8244 15.1263 39.8208 14.8936L39.8101 14.1577C39.8029 13.6528 39.7098 13.3162 39.5308 13.1479C39.3553 12.9797 39.0241 12.8955 38.5371 12.8955H36.8291V16H35.2124V8.08301H39.0957ZM46.626 14.8184C47.2812 14.8184 47.8005 14.5767 48.1836 14.0933C48.5703 13.6099 48.7637 12.9224 48.7637 12.0308C48.7637 11.1427 48.5703 10.457 48.1836 9.97363C47.8005 9.48665 47.2812 9.24316 46.626 9.24316C45.9707 9.24316 45.4479 9.48486 45.0576 9.96826C44.6673 10.4517 44.4722 11.1392 44.4722 12.0308C44.4722 12.9224 44.6673 13.6099 45.0576 14.0933C45.4479 14.5767 45.9707 14.8184 46.626 14.8184ZM50.418 12.0308C50.418 13.4523 50.0187 14.5409 49.2202 15.2964C48.6222 15.9123 47.7575 16.2202 46.626 16.2202C45.4945 16.2202 44.6297 15.9123 44.0317 15.2964C43.2297 14.5409 42.8286 13.4523 42.8286 12.0308C42.8286 10.5806 43.2297 9.49202 44.0317 8.76514C44.6297 8.14925 45.4945 7.84131 46.626 7.84131C47.7575 7.84131 48.6222 8.14925 49.2202 8.76514C50.0187 9.49202 50.418 10.5806 50.418 12.0308Z" fill="white"/>
<defs>
<linearGradient id="paint0_linear_23_6472" x1="30" y1="0" x2="30" y2="24" gradientUnits="userSpaceOnUse">
<stop stop-color="#08F1ED"/>
<stop offset="0.815" stop-color="#1BA1F0"/>
<stop offset="1" stop-color="#3994F5"/>
</linearGradient>
</defs>
</svg>
