<svg width="54" height="60" viewBox="0 0 54 60" fill="none" xmlns="http://www.w3.org/2000/svg">
<path d="M22.8994 52H19.7144V44.2495H22.8887C23.5726 44.2495 24.1222 44.4268 24.5376 44.7812C24.953 45.1322 25.1606 45.5994 25.1606 46.1831C25.1606 46.5949 25.0282 46.9637 24.7632 47.2896C24.4982 47.6118 24.1724 47.8052 23.7856 47.8696V47.9126C24.312 47.9735 24.7363 48.1776 25.0586 48.5249C25.3844 48.8687 25.5474 49.2965 25.5474 49.8086C25.5474 50.4925 25.3128 51.0296 24.8438 51.4199C24.3747 51.8066 23.7266 52 22.8994 52ZM20.9175 45.2324V47.5474H22.3408C22.8636 47.5474 23.2646 47.4435 23.5439 47.2358C23.8232 47.0282 23.9629 46.7327 23.9629 46.3496C23.9629 45.9915 23.8429 45.7158 23.603 45.5225C23.3667 45.3291 23.0301 45.2324 22.5933 45.2324H20.9175ZM20.9175 51.0171H22.6577C23.1984 51.0171 23.6102 50.9079 23.8931 50.6895C24.1759 50.471 24.3174 50.1523 24.3174 49.7334C24.3174 49.3145 24.1706 48.9993 23.877 48.7881C23.5869 48.5732 23.1572 48.4658 22.5879 48.4658H20.9175V51.0171ZM33.2656 48.7773C33.2656 49.8265 32.9702 50.6483 32.3794 51.2427C31.7922 51.8335 30.974 52.1289 29.9248 52.1289C28.8148 52.1289 27.9339 51.7673 27.2822 51.0439C26.6341 50.3171 26.3101 49.3324 26.3101 48.0898C26.3101 46.8688 26.6323 45.902 27.2769 45.1895C27.925 44.4769 28.8022 44.1206 29.9087 44.1206C30.7716 44.1206 31.5021 44.3551 32.1001 44.8242C32.7017 45.2933 33.0705 45.9146 33.2065 46.688H31.9712C31.828 46.2082 31.5755 45.8358 31.2139 45.5708C30.8522 45.3058 30.4189 45.1733 29.9141 45.1733C29.1729 45.1733 28.591 45.4312 28.1685 45.9468C27.7495 46.4588 27.54 47.1696 27.54 48.0791C27.54 49.0065 27.7549 49.7388 28.1846 50.2759C28.6143 50.8094 29.1979 51.0762 29.9355 51.0762C30.5622 51.0762 31.0742 50.8936 31.4717 50.5283C31.8691 50.1595 32.0715 49.6815 32.0786 49.0942V48.96H30.0752V47.9878H33.2656V48.7773Z" fill="#A8D9F1"/>
<path d="M20.1204 18.7408L20.7411 18.1201C20.9149 17.9466 21.0332 17.7253 21.0812 17.4844C21.1292 17.2435 21.1046 16.9937 21.0106 16.7668C20.9166 16.5399 20.7573 16.3459 20.553 16.2096C20.3487 16.0732 20.1085 16.0005 19.8629 16.0007C19.6998 16.0006 19.5384 16.0326 19.3877 16.0949C19.237 16.1572 19.1001 16.2485 18.9847 16.3638L18.3641 16.9844C18.1312 17.2173 18.0003 17.5332 18.0003 17.8626C18.0003 18.192 18.1312 18.5079 18.3641 18.7408C18.597 18.9737 18.9129 19.1045 19.2423 19.1045C19.5716 19.1045 19.8875 18.9737 20.1204 18.7408Z" fill="#A8D9F1"/>
<path d="M18.364 26.1884C18.4793 26.3038 18.6162 26.3953 18.7669 26.4578C18.9176 26.5203 19.0791 26.5524 19.2422 26.5524C19.4054 26.5524 19.5669 26.5203 19.7176 26.4578C19.8683 26.3953 20.0052 26.3038 20.1204 26.1884L28.1886 18.1201C28.4216 17.8872 28.5524 17.5713 28.5524 17.242C28.5524 16.9126 28.4216 16.5967 28.1886 16.3638C27.9557 16.1308 27.6398 16 27.3104 16C26.9811 16 26.6652 16.1308 26.4323 16.3638L18.364 24.432C18.2486 24.5472 18.1571 24.6841 18.0946 24.8348C18.0322 24.9855 18 25.147 18 25.3102C18 25.4733 18.0322 25.6348 18.0946 25.7855C18.1571 25.9362 18.2486 26.0731 18.364 26.1884Z" fill="#A8D9F1"/>
<path d="M18.364 33.6359C18.4793 33.7513 18.6162 33.8429 18.7669 33.9054C18.9176 33.9678 19.0791 34 19.2422 34C19.4054 34 19.5669 33.9678 19.7176 33.9054C19.8683 33.8429 20.0052 33.7513 20.1204 33.6359L35.6362 18.1201C35.8691 17.8872 36 17.5713 36 17.242C36 16.9126 35.8691 16.5967 35.6362 16.3638C35.4033 16.1308 35.0874 16 34.758 16C34.4286 16 34.1127 16.1308 33.8798 16.3638L18.364 31.8795C18.2486 31.9948 18.1571 32.1317 18.0946 32.2824C18.0322 32.4331 18 32.5946 18 32.7577C18 32.9209 18.0322 33.0824 18.0946 33.2331C18.1571 33.3838 18.2486 33.5207 18.364 33.6359Z" fill="#A8D9F1"/>
<path d="M33.8799 31.2589L33.2592 31.8795C33.0263 32.1125 32.8955 32.4283 32.8955 32.7577C32.8955 33.0871 33.0263 33.403 33.2592 33.6359C33.4921 33.8688 33.808 33.9997 34.1374 33.9997C34.4668 33.9997 34.7827 33.8688 35.0156 33.6359L35.6362 33.0153C35.8692 32.7824 36 32.4665 36 32.1371C36 31.8077 35.8692 31.4918 35.6362 31.2589C35.4033 31.026 35.0874 30.8951 34.7581 30.8951C34.4287 30.8951 34.1128 31.026 33.8799 31.2589Z" fill="#A8D9F1"/>
<path d="M26.6898 33.999C26.8529 33.9991 27.0143 33.9671 27.165 33.9048C27.3157 33.8425 27.4526 33.7512 27.568 33.6359L35.6362 25.5677C35.8691 25.3348 36 25.0189 36 24.6895C36 24.3601 35.8691 24.0442 35.6362 23.8113C35.4033 23.5784 35.0874 23.4476 34.758 23.4476C34.4286 23.4476 34.1127 23.5784 33.8798 23.8113L25.8116 31.8795C25.6378 32.0531 25.5195 32.2744 25.4715 32.5153C25.4235 32.7562 25.4481 33.0059 25.5421 33.2329C25.6361 33.4598 25.7954 33.6537 25.9997 33.7901C26.204 33.9265 26.4442 33.9992 26.6898 33.999Z" fill="#A8D9F1"/>
</svg>
