<svg width="54" height="60" viewBox="0 0 54 60" fill="none" xmlns="http://www.w3.org/2000/svg">
<path d="M16.3706 49.8408H17.5576C17.6006 50.224 17.7922 50.5319 18.1323 50.7646C18.4725 50.9974 18.8986 51.1138 19.4106 51.1138C19.8976 51.1138 20.2987 51.001 20.6138 50.7754C20.9325 50.5498 21.0918 50.2633 21.0918 49.916C21.0918 49.6152 20.979 49.37 20.7534 49.1802C20.5278 48.9868 20.1644 48.8293 19.6631 48.7075L18.6587 48.4658C17.9461 48.2939 17.4198 48.0379 17.0796 47.6978C16.743 47.3576 16.5747 46.9172 16.5747 46.3765C16.5747 45.7104 16.8361 45.168 17.3589 44.749C17.8853 44.3301 18.5638 44.1206 19.3945 44.1206C20.2109 44.1206 20.877 44.3301 21.3926 44.749C21.9082 45.1644 22.175 45.7069 22.1929 46.3765H21.022C20.9862 45.9933 20.8197 45.6908 20.5225 45.4688C20.2288 45.2467 19.8475 45.1357 19.3784 45.1357C18.9129 45.1357 18.5334 45.2432 18.2397 45.458C17.9497 45.6729 17.8047 45.9521 17.8047 46.2959C17.8047 46.568 17.9139 46.7918 18.1323 46.9673C18.3507 47.1392 18.7106 47.2878 19.2119 47.4131L20.0659 47.6226C20.8608 47.8088 21.4338 48.0719 21.7847 48.4121C22.1392 48.7487 22.3164 49.2017 22.3164 49.771C22.3164 50.4943 22.0479 51.069 21.5107 51.4951C20.9736 51.9176 20.245 52.1289 19.3247 52.1289C18.4618 52.1289 17.7617 51.923 17.2246 51.5112C16.6911 51.0959 16.4064 50.5391 16.3706 49.8408ZM26.2856 46.1079C27.0304 46.1079 27.6266 46.3783 28.0742 46.9189C28.5254 47.4596 28.751 48.1812 28.751 49.0835C28.751 49.9823 28.5272 50.7038 28.0796 51.248C27.6356 51.7887 27.0465 52.0591 26.3125 52.0591C25.8936 52.0591 25.5247 51.9714 25.2061 51.7959C24.8874 51.6169 24.6403 51.3662 24.4648 51.0439H24.4434V53.9067H23.2778V46.167H24.4004V47.1338H24.4272C24.592 46.8187 24.8408 46.5698 25.1738 46.3872C25.5104 46.201 25.881 46.1079 26.2856 46.1079ZM25.9902 51.0708C26.4629 51.0708 26.8424 50.89 27.1289 50.5283C27.4154 50.1667 27.5586 49.6851 27.5586 49.0835C27.5586 48.4819 27.4154 48.0003 27.1289 47.6387C26.8424 47.277 26.4629 47.0962 25.9902 47.0962C25.5283 47.0962 25.1541 47.2788 24.8677 47.644C24.5812 48.0093 24.4362 48.4891 24.4326 49.0835C24.4362 49.6815 24.5794 50.1631 24.8623 50.5283C25.1488 50.89 25.5247 51.0708 25.9902 51.0708ZM29.7285 52V43.9004H30.894V52H29.7285ZM32.1831 52V46.167H33.3486V52H32.1831ZM33.252 45.1411C33.1195 45.27 32.9583 45.3345 32.7686 45.3345C32.5788 45.3345 32.4176 45.27 32.2852 45.1411C32.1527 45.0086 32.0864 44.8493 32.0864 44.6631C32.0864 44.4733 32.1527 44.314 32.2852 44.1851C32.4176 44.0562 32.5788 43.9917 32.7686 43.9917C32.9583 43.9917 33.1195 44.0562 33.252 44.1851C33.3844 44.314 33.4507 44.4733 33.4507 44.6631C33.4507 44.8493 33.3844 45.0086 33.252 45.1411ZM34.9385 44.8564H36.0986V46.167H37.2158V47.0854H36.0986V50.3457C36.0986 50.5999 36.1559 50.7879 36.2705 50.9097C36.3887 51.0278 36.5695 51.0869 36.813 51.0869C36.9526 51.0869 37.0851 51.078 37.2104 51.0601V51.9785C37.0529 52.0179 36.8345 52.0376 36.5552 52.0376C35.9715 52.0376 35.5562 51.9176 35.3091 51.6777C35.062 51.4342 34.9385 51.0296 34.9385 50.4639V47.0854H34.1328V46.167H34.9385V44.8564Z" fill="#A8D9F1"/>
<path d="M19.2812 18.3311H21.25C21.3824 18.3304 21.514 18.3506 21.6396 18.3906L21.7637 18.4375C21.9254 18.5085 22.0705 18.6126 22.1895 18.7432C22.2788 18.8412 22.3518 18.9529 22.4062 19.0732L22.4541 19.1963C22.5096 19.3635 22.5297 19.5404 22.5127 19.7158C22.4778 19.9952 22.3536 20.2545 22.1602 20.4561L22.0732 20.5391C21.8603 20.7234 21.5942 20.8333 21.3154 20.8535L21.1953 20.8564H19.2812C19.0939 20.8564 18.9147 20.931 18.7822 21.0635C18.6498 21.1959 18.5752 21.3752 18.5752 21.5625V29.4375C18.5752 29.6248 18.6498 29.8041 18.7822 29.9365C18.9147 30.069 19.0939 30.1436 19.2812 30.1436H21.25C21.4267 30.1427 21.6019 30.179 21.7637 30.25C21.9254 30.321 22.0705 30.4251 22.1895 30.5557C22.2788 30.6537 22.3518 30.7654 22.4062 30.8857L22.4541 31.0088C22.5096 31.176 22.5297 31.3529 22.5127 31.5283C22.4778 31.8077 22.3536 32.067 22.1602 32.2686L22.0732 32.3516C21.8603 32.5359 21.5942 32.6458 21.3154 32.666L21.1953 32.6689H19.2812C18.4778 32.6689 17.7051 32.3697 17.1123 31.833L16.9961 31.7227C16.3901 31.1167 16.0498 30.2945 16.0498 29.4375V21.5625C16.0498 20.7591 16.349 19.9863 16.8857 19.3936L16.9961 19.2773C17.6021 18.6714 18.4243 18.3311 19.2812 18.3311Z" fill="#A8D9F1" stroke="#22242A" stroke-width="0.1"/>
<path d="M31.7495 18.3311H33.7183C34.0897 18.3311 34.4582 18.3956 34.8071 18.5205L34.9556 18.5771C35.2984 18.7192 35.6137 18.9193 35.8882 19.168L36.0034 19.2773C36.2659 19.5398 36.4807 19.8458 36.6392 20.1807L36.7036 20.3262C36.866 20.7182 36.9497 21.1382 36.9497 21.5625V29.4375C36.9497 29.8087 36.8859 30.1766 36.7612 30.5254L36.7036 30.6738C36.5615 31.017 36.3617 31.3328 36.1128 31.6074L36.0034 31.7227C35.7035 32.0225 35.3474 32.2605 34.9556 32.4229C34.5635 32.5852 34.1426 32.6689 33.7183 32.6689H31.8052C31.5235 32.6745 31.2483 32.5885 31.021 32.4258L30.9272 32.3516C30.7143 32.1672 30.5673 31.9195 30.5073 31.6465L30.4868 31.5283C30.474 31.3968 30.4821 31.2643 30.5103 31.1357L30.5454 31.0088C30.5872 30.883 30.6488 30.7645 30.7271 30.6582L30.8101 30.5557C30.929 30.4252 31.0742 30.321 31.2358 30.25C31.3572 30.1968 31.4864 30.1636 31.6177 30.1504L31.7495 30.1436H33.7183C33.9056 30.1436 34.0858 30.069 34.2183 29.9365C34.3505 29.8041 34.4253 29.6247 34.4253 29.4375V21.5625C34.4253 21.3753 34.3505 21.1959 34.2183 21.0635C34.0858 20.931 33.9056 20.8564 33.7183 20.8564H31.8052C31.5235 20.862 31.2483 20.776 31.021 20.6133L30.9272 20.5391C30.7143 20.3547 30.5673 20.107 30.5073 19.834L30.4868 19.7158C30.474 19.5843 30.4821 19.4518 30.5103 19.3232L30.5454 19.1963C30.5872 19.0705 30.6488 18.952 30.7271 18.8457L30.8101 18.7432C30.8994 18.6451 31.0039 18.5625 31.1187 18.4971L31.2358 18.4375C31.3572 18.3843 31.4864 18.3511 31.6177 18.3379L31.7495 18.3311Z" fill="#A8D9F1" stroke="#22242A" stroke-width="0.1"/>
<path d="M26.5 15.0498C26.7929 15.0498 27.0752 15.152 27.2998 15.3359L27.3926 15.4199C27.6293 15.6567 27.7627 15.9777 27.7627 16.3125V34.6875C27.7627 35.0223 27.6293 35.3433 27.3926 35.5801C27.1558 35.8168 26.8348 35.9502 26.5 35.9502C26.2071 35.9502 25.9248 35.848 25.7002 35.6641L25.6074 35.5801C25.3707 35.3433 25.2373 35.0223 25.2373 34.6875V16.3125C25.2373 16.0196 25.3395 15.7373 25.5234 15.5127L25.6074 15.4199C25.8442 15.1832 26.1652 15.0498 26.5 15.0498Z" fill="#A8D9F1" stroke="#22242A" stroke-width="0.1"/>
</svg>
