<svg width="54" height="60" viewBox="0 0 54 60" fill="none" xmlns="http://www.w3.org/2000/svg">
<path d="M11.3706 49.8408H12.5576C12.6006 50.224 12.7922 50.5319 13.1323 50.7646C13.4725 50.9974 13.8986 51.1138 14.4106 51.1138C14.8976 51.1138 15.2987 51.001 15.6138 50.7754C15.9325 50.5498 16.0918 50.2633 16.0918 49.916C16.0918 49.6152 15.979 49.37 15.7534 49.1802C15.5278 48.9868 15.1644 48.8293 14.6631 48.7075L13.6587 48.4658C12.9461 48.2939 12.4198 48.0379 12.0796 47.6978C11.743 47.3576 11.5747 46.9172 11.5747 46.3765C11.5747 45.7104 11.8361 45.168 12.3589 44.749C12.8853 44.3301 13.5638 44.1206 14.3945 44.1206C15.2109 44.1206 15.877 44.3301 16.3926 44.749C16.9082 45.1644 17.175 45.7069 17.1929 46.3765H16.022C15.9862 45.9933 15.8197 45.6908 15.5225 45.4688C15.2288 45.2467 14.8475 45.1357 14.3784 45.1357C13.9129 45.1357 13.5334 45.2432 13.2397 45.458C12.9497 45.6729 12.8047 45.9521 12.8047 46.2959C12.8047 46.568 12.9139 46.7918 13.1323 46.9673C13.3507 47.1392 13.7106 47.2878 14.2119 47.4131L15.0659 47.6226C15.8608 47.8088 16.4338 48.0719 16.7847 48.4121C17.1392 48.7487 17.3164 49.2017 17.3164 49.771C17.3164 50.4943 17.0479 51.069 16.5107 51.4951C15.9736 51.9176 15.245 52.1289 14.3247 52.1289C13.4618 52.1289 12.7617 51.923 12.2246 51.5112C11.6911 51.0959 11.4064 50.5391 11.3706 49.8408ZM21.2856 46.1079C22.0304 46.1079 22.6266 46.3783 23.0742 46.9189C23.5254 47.4596 23.751 48.1812 23.751 49.0835C23.751 49.9823 23.5272 50.7038 23.0796 51.248C22.6356 51.7887 22.0465 52.0591 21.3125 52.0591C20.8936 52.0591 20.5247 51.9714 20.2061 51.7959C19.8874 51.6169 19.6403 51.3662 19.4648 51.0439H19.4434V53.9067H18.2778V46.167H19.4004V47.1338H19.4272C19.592 46.8187 19.8408 46.5698 20.1738 46.3872C20.5104 46.201 20.881 46.1079 21.2856 46.1079ZM20.9902 51.0708C21.4629 51.0708 21.8424 50.89 22.1289 50.5283C22.4154 50.1667 22.5586 49.6851 22.5586 49.0835C22.5586 48.4819 22.4154 48.0003 22.1289 47.6387C21.8424 47.277 21.4629 47.0962 20.9902 47.0962C20.5283 47.0962 20.1541 47.2788 19.8677 47.644C19.5812 48.0093 19.4362 48.4891 19.4326 49.0835C19.4362 49.6815 19.5794 50.1631 19.8623 50.5283C20.1488 50.89 20.5247 51.0708 20.9902 51.0708ZM27.1079 47.0425C26.689 47.0425 26.3398 47.1821 26.0605 47.4614C25.7848 47.7407 25.6309 48.1042 25.5986 48.5518H28.5581C28.5438 48.097 28.4041 47.7318 28.1392 47.4561C27.8742 47.1803 27.5304 47.0425 27.1079 47.0425ZM28.5527 50.292H29.6646C29.5822 50.8148 29.3083 51.2427 28.8428 51.5757C28.3773 51.9051 27.8169 52.0698 27.1616 52.0698C26.3166 52.0698 25.647 51.8049 25.1528 51.2749C24.6623 50.7414 24.417 50.0181 24.417 49.105C24.417 48.1919 24.6623 47.4614 25.1528 46.9136C25.6434 46.3657 26.2969 46.0918 27.1133 46.0918C27.9154 46.0918 28.5509 46.3514 29.02 46.8706C29.4891 47.3862 29.7236 48.0863 29.7236 48.9707V49.3789H25.5933V49.4487C25.5933 49.9536 25.7383 50.36 26.0283 50.668C26.3184 50.9723 26.7033 51.1245 27.1831 51.1245C27.5233 51.1245 27.8169 51.0493 28.064 50.8989C28.311 50.7485 28.474 50.5462 28.5527 50.292ZM33.0913 47.0425C32.6724 47.0425 32.3232 47.1821 32.0439 47.4614C31.7682 47.7407 31.6143 48.1042 31.582 48.5518H34.5415C34.5272 48.097 34.3875 47.7318 34.1226 47.4561C33.8576 47.1803 33.5138 47.0425 33.0913 47.0425ZM34.5361 50.292H35.6479C35.5656 50.8148 35.2917 51.2427 34.8262 51.5757C34.3607 51.9051 33.8003 52.0698 33.145 52.0698C32.3 52.0698 31.6304 51.8049 31.1362 51.2749C30.6457 50.7414 30.4004 50.0181 30.4004 49.105C30.4004 48.1919 30.6457 47.4614 31.1362 46.9136C31.6268 46.3657 32.2803 46.0918 33.0967 46.0918C33.8988 46.0918 34.5343 46.3514 35.0034 46.8706C35.4725 47.3862 35.707 48.0863 35.707 48.9707V49.3789H31.5767V49.4487C31.5767 49.9536 31.7217 50.36 32.0117 50.668C32.3018 50.9723 32.6867 51.1245 33.1665 51.1245C33.5067 51.1245 33.8003 51.0493 34.0474 50.8989C34.2944 50.7485 34.4574 50.5462 34.5361 50.292ZM38.8438 52.0591C38.1097 52.0591 37.5153 51.7869 37.0605 51.2427C36.6094 50.6984 36.3838 49.9769 36.3838 49.0781C36.3838 48.1865 36.6094 47.4686 37.0605 46.9243C37.5153 46.38 38.1061 46.1079 38.833 46.1079C39.2484 46.1079 39.6154 46.1992 39.9341 46.3818C40.2563 46.5609 40.5016 46.8115 40.6699 47.1338H40.6968V43.9004H41.8569V52H40.729V51.0117H40.7075C40.5356 51.3447 40.2868 51.6025 39.9609 51.7852C39.6387 51.9678 39.2663 52.0591 38.8438 52.0591ZM39.1392 47.0962C38.6701 47.0962 38.2923 47.277 38.0059 47.6387C37.7194 48.0003 37.5762 48.4819 37.5762 49.0835C37.5762 49.6886 37.7176 50.172 38.0005 50.5337C38.2869 50.8918 38.6665 51.0708 39.1392 51.0708C39.6082 51.0708 39.986 50.8882 40.2725 50.5229C40.5589 50.1577 40.7021 49.6779 40.7021 49.0835C40.7021 48.4891 40.5571 48.0093 40.2671 47.644C39.9806 47.2788 39.6047 47.0962 39.1392 47.0962Z" fill="#A8D9F1"/>
<path d="M21.4962 32.7692C21.599 32.8577 21.6724 32.9757 21.7068 33.1074C21.7412 33.2391 21.7349 33.3782 21.6887 33.5062C21.6425 33.6341 21.5587 33.7449 21.4483 33.8235C21.338 33.9022 21.2064 33.9451 21.0713 33.9464C20.9161 33.9467 20.7658 33.8923 20.6463 33.7926C18.7589 32.2343 17.5052 30.0323 17.123 27.6044C16.7407 25.1765 17.2567 22.6917 18.5728 20.6217C19.889 18.5517 21.9138 17.0404 24.263 16.3748C26.6121 15.7092 29.1221 15.9355 31.3166 17.0108C31.4759 17.0871 31.5987 17.224 31.6578 17.3915C31.717 17.559 31.7077 17.7432 31.6319 17.9038C31.5562 18.0643 31.4203 18.188 31.2541 18.2475C31.0878 18.3071 30.9049 18.2978 30.7455 18.2215C28.8428 17.2845 26.6646 17.0849 24.6253 17.6606C22.586 18.2363 20.828 19.5471 19.6858 21.3436C18.5435 23.1402 18.0968 25.297 18.4307 27.4038C18.7645 29.5106 19.8556 31.4201 21.4962 32.7692ZM36.0441 21.7999C36.0108 21.7144 35.9603 21.6367 35.8959 21.5717C35.8314 21.5067 35.7544 21.4558 35.6696 21.4221C35.5847 21.3884 35.4939 21.3727 35.4028 21.3759C35.3116 21.3792 35.2221 21.4013 35.1398 21.4409C35.0576 21.4805 34.9843 21.5367 34.9245 21.6061C34.8648 21.6755 34.8198 21.7566 34.7925 21.8442C34.7653 21.9319 34.7562 22.0242 34.7659 22.1156C34.7756 22.2069 34.8039 22.2953 34.8489 22.3751C35.674 24.1259 35.8947 26.1042 35.4761 27.9959C35.0574 29.8875 34.0234 31.584 32.5383 32.816C32.433 32.9039 32.3572 33.0224 32.3213 33.1553C32.2854 33.2882 32.291 33.429 32.3375 33.5585C32.384 33.688 32.4691 33.7999 32.581 33.8789C32.693 33.9579 32.8265 34.0002 32.9632 33.9999C33.1167 34.0022 33.2656 33.9474 33.3815 33.8461C35.0917 32.4236 36.2817 30.4669 36.7628 28.286C37.2439 26.1051 36.9887 23.8248 36.0375 21.8066L36.0441 21.7999ZM29.3246 24.7563C29.5656 25.1608 29.6962 25.6223 29.7031 26.094C29.7031 26.6231 29.5473 27.1404 29.2555 27.5804C28.9636 28.0204 28.5488 28.3633 28.0635 28.5658C27.5782 28.7683 27.0442 28.8213 26.529 28.718C26.0138 28.6148 25.5405 28.36 25.1691 27.9858C24.7977 27.6116 24.5447 27.1349 24.4422 26.6159C24.3397 26.0969 24.3923 25.559 24.5934 25.0701C24.7944 24.5813 25.1348 24.1634 25.5716 23.8694C26.0083 23.5754 26.5218 23.4185 27.0471 23.4185C27.5159 23.4219 27.975 23.5536 28.3751 23.7998L34.6446 17.511C34.7696 17.385 34.9392 17.3143 35.116 17.3143C35.2928 17.3143 35.4624 17.385 35.5874 17.511C35.7125 17.6369 35.7827 17.8077 35.7827 17.9859C35.7827 18.164 35.7125 18.3348 35.5874 18.4607L29.3246 24.7563ZM28.3751 26.1074C28.3754 25.7541 28.2369 25.4151 27.99 25.1643C27.7735 24.9444 27.488 24.807 27.1822 24.7755C26.8763 24.744 26.5691 24.8204 26.313 24.9916C26.0568 25.1628 25.8675 25.4182 25.7775 25.7143C25.6874 26.0104 25.7021 26.3288 25.819 26.6152C25.936 26.9016 26.1479 27.1382 26.4187 27.2848C26.6896 27.4313 27.0025 27.4787 27.3041 27.4187C27.6057 27.3588 27.8773 27.1953 28.0726 26.9562C28.268 26.717 28.3749 26.417 28.3751 26.1074Z" fill="#A8D9F1" stroke="#A8D9F1" stroke-width="0.8"/>
</svg>
