<svg width="54" height="60" viewBox="0 0 54 60" fill="none" xmlns="http://www.w3.org/2000/svg">
<path d="M19.8833 52H18.6802V45.2861H16.2632V44.2495H22.2949V45.2861H19.8833V52ZM22.4399 52V46.167H23.5518V47.1499H23.5732C23.6628 46.8241 23.8328 46.5698 24.0835 46.3872C24.3377 46.201 24.6367 46.1079 24.9805 46.1079C25.1416 46.1079 25.2705 46.1222 25.3672 46.1509V47.2412C25.2383 47.1911 25.0682 47.166 24.8569 47.166C24.4738 47.166 24.1694 47.2896 23.9438 47.5366C23.7183 47.7801 23.6055 48.1077 23.6055 48.5195V52H22.4399ZM26.1782 52V46.167H27.3438V52H26.1782ZM27.2471 45.1411C27.1146 45.27 26.9535 45.3345 26.7637 45.3345C26.5739 45.3345 26.4128 45.27 26.2803 45.1411C26.1478 45.0086 26.0815 44.8493 26.0815 44.6631C26.0815 44.4733 26.1478 44.314 26.2803 44.1851C26.4128 44.0562 26.5739 43.9917 26.7637 43.9917C26.9535 43.9917 27.1146 44.0562 27.2471 44.1851C27.3796 44.314 27.4458 44.4733 27.4458 44.6631C27.4458 44.8493 27.3796 45.0086 27.2471 45.1411ZM28.5845 52V46.167H29.6963V47.1553H29.7178C29.8503 46.8294 30.0633 46.5734 30.3569 46.3872C30.6541 46.1974 30.9943 46.1025 31.3774 46.1025C31.7821 46.1025 32.1258 46.201 32.4087 46.3979C32.6916 46.5949 32.8921 46.8742 33.0103 47.2358H33.0371C33.1911 46.8849 33.4292 46.6092 33.7515 46.4087C34.0773 46.2046 34.4479 46.1025 34.8633 46.1025C35.4398 46.1025 35.8999 46.278 36.2437 46.6289C36.591 46.9762 36.7646 47.4417 36.7646 48.0254V52H35.6045V48.3047C35.6045 47.9215 35.5042 47.6261 35.3037 47.4185C35.1068 47.2072 34.8275 47.1016 34.4658 47.1016C34.1077 47.1016 33.8141 47.2215 33.585 47.4614C33.3594 47.7013 33.2466 48.0075 33.2466 48.3799V52H32.1025V48.208C32.1025 47.8714 32.0005 47.6029 31.7964 47.4023C31.5959 47.2018 31.3255 47.1016 30.9854 47.1016C30.6273 47.1016 30.3319 47.2269 30.0991 47.4775C29.8664 47.7246 29.75 48.0397 29.75 48.4229V52H28.5845Z" fill="#A8D9F1"/>
<path d="M36.6413 18.5938C37.1195 18.1563 37.1195 17.4688 36.6413 17.0625C36.1631 16.625 35.4116 16.625 34.9675 17.0625L29.3313 22.1875L31.0051 23.7188L36.6413 18.5938Z" fill="#A8D9F1"/>
<path d="M36.6413 31.4062L29.6388 25L27.965 23.4375L25.5055 21.1875C25.8813 20.5938 26.0862 19.9062 26.0862 19.25C26.1204 18.1562 25.6763 17.0625 24.7541 16.2187C23.9001 15.4375 22.7728 15 21.5431 15C20.3134 15 19.1862 15.4375 18.3322 16.2187C16.5559 17.8437 16.5559 20.4688 18.3322 22.0938C19.1862 22.875 20.3134 23.3125 21.5431 23.3125C22.3629 23.3125 23.1144 23.125 23.7976 22.75L26.257 25L23.7976 27.25C23.1144 26.9062 22.3629 26.6875 21.5431 26.6875C20.3476 26.6875 19.1862 27.125 18.3322 27.9062C16.5559 29.5312 16.5559 32.1562 18.3322 33.7812C19.1862 34.5625 20.3134 35 21.5431 35C22.7728 35 23.9001 34.5625 24.7541 33.7812C26.2229 32.4375 26.462 30.375 25.4714 28.7812L27.9308 26.5312L34.9334 32.9375C35.1725 33.1562 35.4799 33.25 35.7874 33.25C36.0948 33.25 36.4022 33.1562 36.6413 32.9375C36.9146 32.6875 37.0171 32.375 36.9829 32.0312C36.9488 31.8125 36.8463 31.5938 36.6413 31.4062ZM23.0803 32.2188C22.2605 32.9688 20.8599 32.9688 20.0401 32.2188C19.1862 31.4375 19.1862 30.2187 20.0401 29.4375C20.45 29.0625 20.9966 28.875 21.5431 28.875C22.0897 28.875 22.6362 29.0937 23.0461 29.4375C23.9001 30.2187 23.9001 31.4688 23.0803 32.2188ZM20.0401 20.5312C19.1862 19.75 19.1862 18.5312 20.0401 17.75C20.45 17.375 20.9966 17.1875 21.5431 17.1875C22.0897 17.1875 22.6362 17.4062 23.0461 17.75C23.8659 18.5312 23.8659 19.75 23.0461 20.5312C22.2605 21.2813 20.8599 21.2813 20.0401 20.5312Z" fill="#A8D9F1"/>
</svg>
