<svg width="54" height="60" viewBox="0 0 54 60" fill="none" xmlns="http://www.w3.org/2000/svg">
<path d="M13.2217 52H11.9058L9.13965 44.2495H10.4448L12.5557 50.6465H12.5879L14.7041 44.2495H15.9878L13.2217 52ZM20.6875 51.2642C20.1934 51.8013 19.5238 52.0698 18.6787 52.0698C17.8337 52.0698 17.1623 51.8013 16.6646 51.2642C16.1668 50.7271 15.918 50.0002 15.918 49.0835C15.918 48.1704 16.1668 47.4435 16.6646 46.9028C17.1659 46.3621 17.8372 46.0918 18.6787 46.0918C19.5202 46.0918 20.1898 46.3621 20.6875 46.9028C21.1852 47.4399 21.4341 48.1668 21.4341 49.0835C21.4341 50.0002 21.1852 50.7271 20.6875 51.2642ZM17.5186 50.5713C17.7979 50.9258 18.1846 51.103 18.6787 51.103C19.1729 51.103 19.5578 50.9258 19.8335 50.5713C20.1128 50.2168 20.2524 49.7209 20.2524 49.0835C20.2524 48.4461 20.1128 47.9502 19.8335 47.5957C19.5578 47.2376 19.1729 47.0586 18.6787 47.0586C18.1846 47.0586 17.7979 47.2376 17.5186 47.5957C17.2393 47.9538 17.0996 48.4497 17.0996 49.0835C17.0996 49.7173 17.2393 50.2132 17.5186 50.5713ZM22.417 52V43.9004H23.5825V52H22.417ZM29.9097 46.167V52H28.7979V51.001H28.7764C28.6081 51.3483 28.3628 51.6133 28.0405 51.7959C27.7183 51.9749 27.3351 52.0645 26.8911 52.0645C26.2537 52.0645 25.7453 51.8711 25.3657 51.4844C24.9897 51.0977 24.8018 50.5713 24.8018 49.9053V46.167H25.9673V49.6851C25.9673 50.1326 26.0819 50.4746 26.311 50.7109C26.5402 50.9437 26.866 51.0601 27.2886 51.0601C27.7254 51.0601 28.0763 50.9204 28.3413 50.6411C28.6099 50.3618 28.7441 49.9912 28.7441 49.5293V46.167H29.9097ZM31.1021 52V46.167H32.2139V47.1553H32.2354C32.3678 46.8294 32.5809 46.5734 32.8745 46.3872C33.1717 46.1974 33.5119 46.1025 33.895 46.1025C34.2996 46.1025 34.6434 46.201 34.9263 46.3979C35.2091 46.5949 35.4097 46.8742 35.5278 47.2358H35.5547C35.7087 46.8849 35.9468 46.6092 36.269 46.4087C36.5949 46.2046 36.9655 46.1025 37.3809 46.1025C37.9574 46.1025 38.4175 46.278 38.7612 46.6289C39.1086 46.9762 39.2822 47.4417 39.2822 48.0254V52H38.1221V48.3047C38.1221 47.9215 38.0218 47.6261 37.8213 47.4185C37.6243 47.2072 37.3451 47.1016 36.9834 47.1016C36.6253 47.1016 36.3317 47.2215 36.1025 47.4614C35.877 47.7013 35.7642 48.0075 35.7642 48.3799V52H34.6201V48.208C34.6201 47.8714 34.5181 47.6029 34.314 47.4023C34.1134 47.2018 33.8431 47.1016 33.5029 47.1016C33.1449 47.1016 32.8494 47.2269 32.6167 47.4775C32.384 47.7246 32.2676 48.0397 32.2676 48.4229V52H31.1021ZM42.8755 47.0425C42.4565 47.0425 42.1074 47.1821 41.8281 47.4614C41.5524 47.7407 41.3984 48.1042 41.3662 48.5518H44.3257C44.3114 48.097 44.1717 47.7318 43.9067 47.4561C43.6418 47.1803 43.298 47.0425 42.8755 47.0425ZM44.3203 50.292H45.4321C45.3498 50.8148 45.0758 51.2427 44.6104 51.5757C44.1449 51.9051 43.5845 52.0698 42.9292 52.0698C42.0841 52.0698 41.4146 51.8049 40.9204 51.2749C40.4299 50.7414 40.1846 50.0181 40.1846 49.105C40.1846 48.1919 40.4299 47.4614 40.9204 46.9136C41.411 46.3657 42.0645 46.0918 42.8809 46.0918C43.6829 46.0918 44.3185 46.3514 44.7876 46.8706C45.2567 47.3862 45.4912 48.0863 45.4912 48.9707V49.3789H41.3608V49.4487C41.3608 49.9536 41.5059 50.36 41.7959 50.668C42.0859 50.9723 42.4709 51.1245 42.9507 51.1245C43.2909 51.1245 43.5845 51.0493 43.8315 50.8989C44.0786 50.7485 44.2415 50.5462 44.3203 50.292Z" fill="#A8D9F1"/>
<path d="M30.1787 16.3234C29.306 15.8511 28.289 15.8976 27.4655 16.4531L23.1317 19.37H19.7985C18.2565 19.37 17 20.6405 17 22.2038V26.7903C17 28.3536 18.2532 29.6274 19.7985 29.6274H23.1284L27.4623 32.5443C27.9117 32.847 28.4137 33 28.9222 33C29.3487 33 29.7785 32.8936 30.1754 32.6741C31.0481 32.1984 31.5697 31.3137 31.5697 30.3093V18.6882C31.573 17.6837 31.0514 16.799 30.1787 16.3234ZM18.3156 26.7903V22.2071C18.3156 21.3789 18.9816 20.7037 19.8017 20.7037H22.6724V28.3003H19.7985C18.9816 28.297 18.3156 27.6218 18.3156 26.7903ZM30.2607 30.3093C30.2607 30.8148 29.9983 31.2605 29.5586 31.5C29.119 31.7394 28.6072 31.7162 28.1906 31.4334L23.9847 28.603V20.3911L28.1906 17.5607C28.6072 17.2813 29.119 17.258 29.5586 17.4941C29.9983 17.7336 30.2607 18.1793 30.2607 18.6848V30.3093Z" fill="#A8D9F1" stroke="#A8D9F1" stroke-width="0.5"/>
<path d="M35.8281 19.5463C35.5722 19.2869 35.1556 19.2869 34.8997 19.5463C34.6438 19.8057 34.6438 20.2281 34.8997 20.4876C36.0512 21.655 36.6844 23.2049 36.6877 24.858C36.691 26.511 36.0578 28.0642 34.9062 29.235C34.6504 29.4944 34.6504 29.9168 34.9062 30.1763C35.0342 30.306 35.2015 30.3725 35.3688 30.3725C35.5361 30.3725 35.7035 30.306 35.8314 30.1763C37.2323 28.756 38.0033 26.8669 38 24.858C37.9967 22.8457 37.2257 20.9632 35.8281 19.5463Z" fill="#A8D9F1" stroke="#A8D9F1" stroke-width="0.5"/>
<path d="M33.9055 22.1373C33.6496 21.8778 33.233 21.8778 32.9771 22.1373C32.7212 22.3967 32.7212 22.8191 32.9771 23.0785C33.9482 24.063 33.9515 25.6628 32.9836 26.644C32.7277 26.9034 32.7277 27.3258 32.9836 27.5853C33.1116 27.715 33.2789 27.7815 33.4462 27.7815C33.6135 27.7815 33.7809 27.715 33.9121 27.5853C35.3917 26.0819 35.3884 23.6406 33.9055 22.1373Z" fill="#A8D9F1" stroke="#A8D9F1" stroke-width="0.5"/>
</svg>
